<svg width="512" height="512" viewBox="0 0 512 512" fill="none" xmlns="http://www.w3.org/2000/svg">
<path d="M512 0H0V512H512V0Z" fill="#C9C9C9"/>
<path d="M167.954 208.154C167.954 205.744 166.001 203.791 163.592 203.791C161.182 203.791 159.229 205.744 159.229 208.154V304.134C159.229 306.544 161.182 308.497 163.592 308.497C166.001 308.497 167.954 306.544 167.954 304.134V208.154Z" fill="#9C9C9C"/>
<path d="M278.477 208.735C278.477 206.005 276.264 203.791 273.533 203.791C270.802 203.791 268.588 206.005 268.588 208.735V303.552C268.588 306.283 270.802 308.497 273.533 308.497C276.264 308.497 278.477 306.283 278.477 303.552V208.735Z" fill="#9C9C9C"/>
<path d="M222.634 225.604C222.634 223.194 220.681 221.241 218.271 221.241C215.862 221.241 213.908 223.194 213.908 225.604V286.682C213.908 289.092 215.862 291.045 218.271 291.045C220.681 291.045 222.634 289.092 222.634 286.682V225.604Z" fill="#9C9C9C"/>
<path d="M333.157 225.604C333.157 223.194 331.204 221.241 328.794 221.241C326.385 221.241 324.431 223.194 324.431 225.604V286.682C324.431 289.092 326.385 291.045 328.794 291.045C331.204 291.045 333.157 289.092 333.157 286.682V225.604Z" fill="#9C9C9C"/>
<path d="M370.386 225.604C370.386 223.194 368.432 221.241 366.023 221.241C363.613 221.241 361.66 223.194 361.66 225.604V286.682C361.66 289.092 363.613 291.045 366.023 291.045C368.432 291.045 370.386 289.092 370.386 286.682V225.604Z" fill="#9C9C9C"/>
<path d="M351.771 208.154C351.771 205.744 349.818 203.791 347.409 203.791C344.999 203.791 343.046 205.744 343.046 208.154V304.134C343.046 306.544 344.999 308.497 347.409 308.497C349.818 308.497 351.771 306.544 351.771 304.134V208.154Z" fill="#9C9C9C"/>
<path d="M149.34 225.604C149.34 223.194 147.386 221.241 144.977 221.241C142.568 221.241 140.614 223.194 140.614 225.604V286.682C140.614 289.092 142.568 291.045 144.977 291.045C147.386 291.045 149.34 289.092 149.34 286.682V225.604Z" fill="#9C9C9C"/>
<path d="M259.863 163.363C259.863 160.953 257.909 159 255.5 159C253.09 159 251.137 160.953 251.137 163.363V348.343C251.137 350.753 253.09 352.706 255.5 352.706C257.909 352.706 259.863 350.753 259.863 348.343V163.363Z" fill="#9C9C9C"/>
<path d="M205.183 243.638C205.183 240.907 202.969 238.693 200.239 238.693C197.508 238.693 195.294 240.907 195.294 243.638V268.651C195.294 271.382 197.508 273.595 200.239 273.595C202.969 273.595 205.183 271.382 205.183 268.651V243.638Z" fill="#9C9C9C"/>
<path d="M314.542 243.056C314.542 240.647 312.589 238.693 310.18 238.693C307.77 238.693 305.817 240.647 305.817 243.056V269.233C305.817 271.642 307.77 273.595 310.18 273.595C312.589 273.595 314.542 271.642 314.542 269.233V243.056Z" fill="#9C9C9C"/>
<path d="M389 243.056C389 240.647 387.047 238.693 384.637 238.693C382.228 238.693 380.275 240.647 380.275 243.056V269.233C380.275 271.642 382.228 273.595 384.637 273.595C387.047 273.595 389 271.642 389 269.233V243.056Z" fill="#9C9C9C"/>
<path d="M130.725 243.056C130.725 240.647 128.772 238.693 126.363 238.693C123.953 238.693 122 240.647 122 243.056V269.233C122 271.642 123.953 273.595 126.363 273.595C128.772 273.595 130.725 271.642 130.725 269.233V243.056Z" fill="#9C9C9C"/>
<path d="M241.248 208.154C241.248 205.744 239.295 203.791 236.885 203.791C234.476 203.791 232.523 205.744 232.523 208.154V304.134C232.523 306.544 234.476 308.497 236.885 308.497C239.295 308.497 241.248 306.544 241.248 304.134V208.154Z" fill="#9C9C9C"/>
<path d="M186.569 226.186C186.569 223.455 184.355 221.241 181.624 221.241C178.894 221.241 176.68 223.455 176.68 226.186V286.101C176.68 288.831 178.894 291.045 181.624 291.045C184.355 291.045 186.569 288.831 186.569 286.101V226.186Z" fill="#9C9C9C"/>
<path d="M297.092 226.186C297.092 223.455 294.878 221.241 292.147 221.241C289.416 221.241 287.203 223.455 287.203 226.186V286.101C287.203 288.831 289.416 291.045 292.147 291.045C294.878 291.045 297.092 288.831 297.092 286.101V226.186Z" fill="#9C9C9C"/>
</svg>